<svg width="32" height="32" viewBox="0 0 32 32" fill="none" xmlns="http://www.w3.org/2000/svg">
<g clip-path="url(#clip0_11_84)">
<path fill-rule="evenodd" clip-rule="evenodd" d="M32 32H0V0H32V32ZM26.6267 24.468V24.1093L24.964 22.4773C24.8173 22.3653 24.744 22.1813 24.7747 21.9987V10.0013C24.744 9.81867 24.8173 9.63467 24.964 9.52267L26.6667 7.89067V7.532H20.7707L16.568 18.016L11.7867 7.532H5.60267V7.89067L7.59467 10.2893C7.78933 10.4667 7.88933 10.7253 7.86267 10.9867V20.416C7.92133 20.756 7.81333 21.104 7.57467 21.352L5.33333 24.0693V24.428H11.688V24.0693L9.44667 21.352C9.20533 21.104 9.092 20.7587 9.13733 20.416V12.2613L14.7147 24.428H15.3627L20.1533 12.2613V21.9587C20.1533 22.2173 20.1533 22.268 19.984 22.4373L18.2613 24.1093V24.468H26.6267Z" fill="#444444"/>
</g>
<defs>
<clipPath id="clip0_11_84">
<rect width="32" height="32" rx="16" fill="white"/>
</clipPath>
</defs>
</svg>
