<svg width="33" height="32" viewBox="0 0 33 32" fill="none" xmlns="http://www.w3.org/2000/svg">
<g clip-path="url(#clip0_28_413)">
<path d="M0.333344 0C4.06534 1.6 11.9107 1.27333 11.4093 8.49467L8.55201 11.4093C1.43468 11.5333 1.56668 3.936 0.333344 0H0.333344ZM14.8453 20.536C18.456 23.2667 30.6107 31.804 30.6107 31.804C31.616 32.488 32.8267 31.248 32.1253 30.2547C32.1253 30.2547 23.316 18.3027 20.5 14.7627C18.276 11.9613 17.164 11.8627 13.22 10.7013L10.616 13.364C11.864 17.272 11.9933 18.3773 14.8453 20.536ZM8.34268 24.9787L11.836 21.4773C11.4893 21.152 11.184 20.8307 10.916 20.512L7.40001 24.036L8.34268 24.9787ZM19.3347 10.096L25.74 3.67733L28.612 6.55067L22.3507 12.8253C22.9347 13.5253 23.4347 14.1867 24.012 14.9373L32.3333 6.6L25.7347 0L16.7733 8.97733C17.7133 9.28267 18.544 9.62133 19.3347 10.096ZM25.784 5.608L20.488 10.916C20.808 11.1813 21.1333 11.48 21.464 11.824L26.7253 6.54933L25.784 5.608ZM12.8493 22.3467L8.04934 27.156L4.07734 28.256L5.17601 24.284L10.0787 19.3707C9.60401 18.5933 9.25601 17.7667 8.93334 16.832L2.76534 23.012L0.333344 32L9.36401 29.612L15 23.9667C13.6667 22.996 13.6267 22.968 12.8493 22.3467Z" fill="white"/>
</g>
<defs>
<clipPath id="clip0_28_413">
<rect width="32" height="32" fill="white" transform="translate(0.333344)"/>
</clipPath>
</defs>
</svg>
