<svg width="32" height="32" viewBox="0 0 32 32" fill="none" xmlns="http://www.w3.org/2000/svg">
<g clip-path="url(#clip0_28_409)">
<path d="M32 1.77778C32 0.928 31.3262 0 30.2222 0H1.77778C0.675556 0 0 0.922667 0 1.77778V30.2222C0 31.3262 0.924444 32 1.77778 32H30.2222C31.072 32 32 31.3262 32 30.2222V1.77778ZM29.3333 11.5644V29.3333H2.66667V11.5644H29.3333ZM29.3333 8.89778H2.66667V2.66667H29.3333V8.89778ZM25.3333 4.45333C26.0693 4.45333 26.6667 5.05067 26.6667 5.78667C26.6667 6.52267 26.0693 7.12 25.3333 7.12C24.5973 7.12 24 6.52267 24 5.78667C24 5.05067 24.5973 4.45333 25.3333 4.45333ZM20 4.45333C20.736 4.45333 21.3333 5.05067 21.3333 5.78667C21.3333 6.52267 20.736 7.12 20 7.12C19.264 7.12 18.6667 6.52267 18.6667 5.78667C18.6667 5.05067 19.264 4.45333 20 4.45333Z" fill="white"/>
</g>
<defs>
<clipPath id="clip0_28_409">
<rect width="32" height="32" fill="white"/>
</clipPath>
</defs>
</svg>
